<?xml version="1.0" standalone="no"?>
<!DOCTYPE svg PUBLIC "-//W3C//DTD SVG 20010904//EN"
 "http://www.w3.org/TR/2001/REC-SVG-20010904/DTD/svg10.dtd">
<svg version="1.0" xmlns="http://www.w3.org/2000/svg"
 width="169.000000pt" height="125.000000pt" viewBox="0 0 169.000000 125.000000"
 preserveAspectRatio="xMidYMid meet">

<g transform="translate(0.000000,125.000000) scale(0.100000,-0.100000)"
fill="#000000" stroke="none">
<path d="M772 1166 c-68 -70 -72 -76 -72 -119 0 -43 5 -52 72 -127 l72 -81 63
63 c73 72 98 117 89 161 -6 28 -128 177 -145 177 -4 0 -40 -33 -79 -74z m178
-126 c0 -23 -12 -43 -46 -80 -26 -28 -52 -50 -58 -49 -6 0 -32 25 -58 55 -63
71 -62 90 4 160 l52 56 53 -55 c41 -43 53 -62 53 -87z"/>
<path d="M547 914 c-123 -131 -122 -170 4 -299 l78 -80 73 79 c86 93 97 110
98 154 0 48 -19 78 -102 158 l-73 72 -78 -84z m135 -41 c51 -53 72 -94 62
-127 -3 -11 -31 -47 -62 -78 -64 -66 -60 -67 -133 25 -55 69 -53 94 18 168 31
32 59 59 62 59 4 0 28 -21 53 -47z"/>
<path d="M992 927 c-130 -135 -132 -176 -10 -303 l82 -85 78 78 c129 128 130
171 5 300 l-82 85 -73 -75z m137 -66 c72 -83 71 -112 -6 -193 l-58 -60 -57 61
c-79 84 -79 110 -1 192 31 32 59 59 64 59 4 0 30 -26 58 -59z"/>
<path d="M748 583 c-114 -118 -141 -164 -142 -248 0 -48 6 -71 30 -114 106
-197 387 -159 444 59 26 97 -11 176 -144 309 l-92 91 -96 -97z m252 -158 c45
-73 31 -166 -36 -224 -87 -77 -210 -57 -269 44 -30 50 -33 120 -9 168 10 18
49 65 87 105 l71 73 69 -68 c37 -37 76 -81 87 -98z"/>
</g>
</svg>
